<mxfile host="app.diagrams.net" modified="2023-04-11T11:17:21.322Z" agent="Mozilla/5.0 (Windows NT 10.0; Win64; x64) AppleWebKit/537.36 (KHTML, like Gecko) Chrome/113.0.0.0 Safari/537.36 Edg/113.0.0.0" version="21.1.5" etag="7lvHcd161WMzxLIkK_tP" type="github">
  <diagram name="Page-1" id="t1vW6TBJzneSsP5YTF4f">
    <mxGraphModel>
      <root>
        <mxCell id="0" />
        <mxCell id="1" parent="0" />
      </root>
    </mxGraphModel>
  </diagram>
</mxfile>
